<svg xmlns="http://www.w3.org/2000/svg" viewBox="0 0 1024 1024" role="img" aria-labelledby="title desc">
  <title id="title">Hausbestand App-Symbol</title>
  <desc id="desc">Material-Home-Symbol auf gruenem Hintergrund.</desc>
  <defs>
    <linearGradient id="bg" x1="144" y1="112" x2="888" y2="920" gradientUnits="userSpaceOnUse">
      <stop offset="0" stop-color="#1f8a7d" />
      <stop offset="1" stop-color="#114f49" />
    </linearGradient>
    <linearGradient id="glow" x1="246" y1="182" x2="774" y2="814" gradientUnits="userSpaceOnUse">
      <stop offset="0" stop-color="#fff7eb" />
      <stop offset="1" stop-color="#f6d7a7" />
    </linearGradient>
  </defs>
  <rect x="64" y="64" width="896" height="896" rx="224" fill="url(#bg)" />
  <circle cx="512" cy="512" r="270" fill="#0d3f3b" opacity=".18" />
  <path
    d="M512 250 230 482h72v246c0 24 20 44 44 44h164V600h84v172h164c24 0 44-20 44-44V482h72L512 250Z"
    fill="url(#glow)"
  />
  <path
    d="M512 202 170 476c-15 12-18 34-6 49 12 15 34 18 49 6l299-239 299 239c15 12 37 9 49-6 12-15 9-37-6-49L512 202Z"
    fill="#fffdf8"
    opacity=".96"
  />
  <path
    d="M450 772V592c0-18 14-32 32-32h60c18 0 32 14 32 32v180h-124Z"
    fill="#f0b35f"
  />
  <path
    d="M370 500h284"
    stroke="#17675f"
    stroke-linecap="round"
    stroke-width="34"
    opacity=".88"
  />
</svg>
